<?xml version="1.0" standalone="no"?>
<!DOCTYPE svg PUBLIC "-//W3C//DTD SVG 20010904//EN"
 "http://www.w3.org/TR/2001/REC-SVG-20010904/DTD/svg10.dtd">
<svg version="1.0" xmlns="http://www.w3.org/2000/svg"
 width="1162.000000pt" height="302.000000pt" viewBox="0 0 1162.000000 302.000000"
 preserveAspectRatio="xMidYMid meet">

<g transform="translate(0.000000,302.000000) scale(0.100000,-0.100000)"
fill="#000000" stroke="none">
<path d="M2566 2586 c-202 -233 -374 -427 -382 -430 -53 -20 -94 3 -231 135
-63 60 -117 109 -122 109 -11 0 -181 -178 -181 -189 0 -11 498 -491 509 -491
10 0 950 1045 957 1064 5 14 -160 226 -176 226 -4 0 -172 -191 -374 -424z"/>
<path d="M1035 2589 c-164 -22 -347 -89 -482 -178 -315 -208 -504 -526 -545
-916 -50 -480 218 -958 657 -1175 231 -114 425 -147 685 -117 197 23 449 31
548 18 154 -22 289 -79 416 -176 26 -19 48 -35 51 -35 20 0 -84 244 -130 304
-55 72 -184 153 -289 183 -29 8 -121 17 -213 20 -129 5 -168 9 -191 23 -46 28
-62 75 -62 182 l0 94 36 35 c49 48 109 139 134 206 12 32 38 76 59 98 50 55
76 124 76 205 0 60 -2 66 -30 84 l-30 20 -1 121 c-2 191 -47 320 -148 421
-213 213 -610 181 -771 -62 -62 -93 -87 -186 -93 -345 -4 -133 -5 -137 -28
-148 -14 -6 -29 -23 -35 -38 -23 -60 21 -203 81 -263 22 -22 45 -59 54 -87 20
-62 63 -130 127 -204 l49 -57 0 -73 c0 -91 -13 -139 -44 -168 l-23 -22 -56 25
c-337 149 -551 494 -534 861 16 351 207 646 512 791 122 57 188 74 330 81 132
6 229 -5 340 -40 39 -11 73 -21 76 -22 8 0 199 216 199 225 0 9 -117 59 -195
83 -143 45 -384 66 -530 46z m339 -489 c161 -50 277 -182 315 -358 16 -77 14
-327 -5 -451 -31 -208 -100 -351 -224 -464 -127 -115 -242 -141 -364 -84 -83
38 -219 178 -263 268 -59 123 -90 276 -99 489 -7 161 9 269 55 365 99 213 341
310 585 235z m-660 -692 c3 -13 10 -61 16 -108 6 -47 13 -98 16 -115 5 -29 5
-29 -11 -10 -45 53 -76 171 -61 229 8 32 34 34 40 4z m1050 -11 c12 -34 -13
-142 -45 -194 -24 -39 -43 -44 -29 -8 5 13 15 72 22 130 10 85 15 105 27 103
9 -2 20 -16 25 -31z m-674 -677 c93 -47 211 -36 310 30 25 16 48 30 53 30 4 0
7 -36 7 -79 0 -89 10 -124 46 -162 l25 -26 -138 -9 c-194 -12 -329 -10 -393 5
-30 8 -58 15 -62 18 -4 2 4 24 17 50 21 38 25 60 25 130 l0 84 33 -24 c17 -14
52 -35 77 -47z"/>
<path d="M913 1517 c-18 -7 -38 -18 -45 -26 -11 -11 -9 -13 12 -8 70 17 110
18 168 4 34 -8 65 -10 68 -6 23 38 -125 64 -203 36z"/>
<path d="M1353 1515 c-53 -23 -42 -38 20 -29 64 10 111 11 160 2 49 -9 47 6
-3 26 -49 20 -134 20 -177 1z"/>
<path d="M925 1418 c-33 -18 -55 -40 -49 -50 3 -4 17 1 31 12 30 23 55 26 47
6 -3 -8 0 -24 6 -36 9 -16 19 -20 43 -18 27 2 33 8 35 31 4 30 23 35 42 12 16
-19 30 -19 30 -1 0 8 -15 24 -34 35 -37 23 -117 28 -151 9z"/>
<path d="M1360 1408 c-19 -13 -35 -29 -38 -35 -6 -20 23 -15 43 7 19 21 19 21
29 -12 18 -54 86 -48 86 8 0 29 21 31 45 4 22 -24 35 -26 35 -5 0 8 -15 24
-32 35 -46 28 -125 27 -168 -2z"/>
<path d="M1146 1118 c10 -16 75 -26 109 -17 58 16 47 24 -35 24 -43 0 -76 -3
-74 -7z"/>
<path d="M1167 992 c-151 -4 -108 -22 54 -22 98 0 140 3 137 11 -4 13 -50 15
-191 11z"/>
<path d="M1164 909 c-5 -9 22 -19 51 -19 27 0 55 9 55 19 0 8 -101 8 -106 0z"/>
<path d="M3435 2399 c-338 -49 -611 -318 -671 -660 -61 -353 126 -702 459
-854 246 -112 540 -92 769 54 l63 40 75 -74 75 -75 135 0 135 0 -142 143 -141
142 25 35 c44 61 102 192 124 280 28 111 23 297 -11 405 -123 388 -495 622
-895 564z m305 -207 c362 -128 532 -517 369 -845 -53 -109 -33 -118 -267 116
-114 114 -212 207 -217 207 -6 0 -40 -29 -75 -65 l-65 -66 219 -212 219 -212
-61 -33 c-96 -51 -169 -73 -268 -79 -390 -25 -706 322 -640 703 41 241 225
439 461 499 82 20 250 14 325 -13z"/>
<path d="M6350 1620 l0 -790 95 0 95 0 0 174 0 174 84 76 85 77 53 -73 c30
-40 112 -153 183 -250 l129 -178 113 0 c62 0 113 2 113 5 0 3 -102 145 -226
316 l-226 310 89 83 c48 45 134 125 190 177 l102 94 -130 3 -130 3 -212 -198
-212 -198 -3 493 -2 492 -95 0 -95 0 0 -790z"/>
<path d="M8420 1620 l0 -790 94 0 95 0 3 313 3 312 27 47 c125 212 405 206
519 -12 23 -44 24 -52 27 -352 l3 -308 95 0 96 0 -4 307 c-4 279 -6 314 -25
370 -57 172 -196 292 -375 324 -111 20 -226 -8 -335 -81 l-33 -22 0 341 0 341
-95 0 -95 0 0 -790z"/>
<path d="M10660 1620 l0 -790 95 0 95 0 0 174 0 174 84 76 85 77 53 -73 c30
-40 112 -153 183 -250 l129 -178 113 0 c62 0 113 2 113 5 0 3 -102 145 -226
316 l-226 310 89 83 c48 45 134 125 190 177 l102 94 -130 3 -130 3 -212 -198
-212 -198 -3 493 -2 492 -95 0 -95 0 0 -790z"/>
<path d="M5846 2229 c-42 -44 -76 -84 -76 -89 0 -10 159 -160 170 -160 10 0
160 159 160 170 0 10 -159 160 -170 160 -4 0 -42 -36 -84 -81z"/>
<path d="M7714 1825 c-147 -32 -285 -141 -349 -277 -96 -201 -57 -428 99 -584
200 -200 524 -202 728 -5 l62 61 -75 53 -74 54 -47 -42 c-77 -69 -129 -89
-228 -89 -74 0 -92 3 -143 29 -249 124 -249 476 0 600 50 25 69 29 143 29 73
0 93 -3 140 -27 30 -16 71 -44 90 -63 20 -19 39 -34 43 -34 15 0 137 94 137
106 0 7 -25 35 -56 64 -129 117 -299 162 -470 125z"/>
<path d="M9907 1820 c-228 -58 -386 -295 -363 -545 37 -409 457 -597 782 -352
37 29 69 57 71 63 3 10 -124 94 -142 94 -3 0 -25 -13 -48 -28 -103 -71 -222
-87 -311 -42 -81 41 -154 140 -171 233 l-7 37 382 0 383 0 -6 93 c-6 109 -29
175 -93 264 -51 71 -131 133 -213 164 -64 24 -203 34 -264 19z m215 -192 c55
-23 121 -91 148 -151 l19 -42 -271 -3 c-149 -1 -273 0 -276 3 -8 7 23 70 54
110 54 72 160 120 239 108 22 -3 61 -14 87 -25z"/>
<path d="M4620 1520 c0 -181 4 -320 11 -352 61 -287 379 -438 654 -309 78 36
162 116 199 189 51 101 56 141 56 469 l0 303 -95 0 -95 0 0 -313 0 -313 -26
-52 c-28 -56 -63 -91 -128 -125 -62 -33 -174 -31 -241 5 -62 32 -98 69 -124
128 -19 42 -21 65 -21 358 l0 312 -95 0 -95 0 0 -300z"/>
<path d="M5840 1325 l0 -495 95 0 95 0 0 495 0 495 -95 0 -95 0 0 -495z"/>
<path d="M2227 1648 l-116 -133 -1 -91 c0 -166 -47 -338 -125 -469 -20 -32
-34 -59 -33 -59 2 -1 43 -11 92 -24 49 -12 113 -33 142 -46 l53 -25 20 32 c31
51 88 195 110 282 34 127 47 296 34 418 -13 107 -42 247 -53 247 -4 0 -59 -60
-123 -132z"/>
<path d="M4194 620 c-34 -13 -64 -59 -64 -96 0 -31 -3 -34 -30 -34 -23 0 -30
-4 -30 -20 0 -16 7 -20 30 -20 l30 0 0 -150 c0 -143 1 -150 20 -150 19 0 20 7
20 150 l0 150 45 0 c38 0 45 3 45 20 0 17 -7 20 -45 20 -43 0 -45 1 -45 30 0
37 31 70 65 70 18 0 25 5 25 20 0 22 -27 26 -66 10z"/>
<path d="M6114 616 c-48 -21 -74 -61 -74 -115 0 -26 6 -56 14 -66 13 -18 11
-23 -24 -55 -60 -56 -66 -128 -14 -189 46 -55 150 -65 223 -20 l34 20 26 -25
c21 -20 30 -23 44 -14 18 9 17 12 -12 42 -31 32 -31 33 -16 69 19 47 19 73 -1
81 -22 8 -24 8 -24 -8 0 -8 -5 -27 -10 -42 l-11 -27 -36 34 c-19 19 -62 64
-94 102 -68 78 -75 109 -33 151 39 38 95 36 136 -5 28 -27 58 -33 58 -11 0 19
-45 65 -76 78 -41 17 -70 17 -110 0z m58 -313 c38 -37 68 -71 68 -75 0 -15
-60 -38 -100 -38 -46 0 -94 21 -104 45 -14 37 -6 86 19 110 13 14 30 25 37 25
7 0 43 -30 80 -67z"/>
<path d="M5393 573 c-8 -2 -13 -22 -13 -44 0 -38 -1 -39 -35 -39 -28 0 -35 -4
-35 -20 0 -16 7 -20 35 -20 l35 0 0 -130 c0 -154 8 -170 85 -170 38 0 45 3 45
19 0 16 -8 20 -42 23 l-43 3 -3 128 -3 127 46 0 c38 0 45 3 45 20 0 17 -7 20
-45 20 l-45 0 0 45 c0 44 -3 48 -27 38z"/>
<path d="M9693 573 c-8 -2 -13 -22 -13 -44 0 -38 -1 -39 -35 -39 -28 0 -35 -4
-35 -20 0 -16 7 -20 35 -20 l35 0 0 -130 c0 -154 8 -170 85 -170 38 0 45 3 45
19 0 16 -8 20 -42 23 l-43 3 -3 128 -3 127 46 0 c38 0 45 3 45 20 0 17 -7 20
-45 20 l-45 0 0 45 c0 44 -3 48 -27 38z"/>
<path d="M4496 490 c-64 -20 -116 -95 -116 -169 0 -149 168 -234 276 -139 l34
30 0 -31 c0 -24 4 -31 20 -31 19 0 20 7 20 170 0 163 -1 170 -20 170 -16 0
-20 -7 -20 -32 l0 -32 -28 27 c-44 42 -104 55 -166 37z m139 -61 c43 -38 60
-93 45 -148 -41 -154 -260 -120 -260 41 0 114 132 180 215 107z"/>
<path d="M4983 485 c-37 -16 -53 -42 -53 -84 0 -42 35 -76 100 -96 65 -21 90
-40 90 -70 0 -63 -113 -75 -156 -17 -11 16 -44 10 -44 -7 0 -18 61 -60 96 -67
44 -8 104 9 129 36 26 29 24 84 -3 113 -12 13 -44 29 -72 36 -62 16 -100 45
-100 76 0 53 91 75 134 32 19 -19 27 -21 40 -12 14 11 13 14 -7 33 -44 42 -99
51 -154 27z"/>
<path d="M6916 490 c-64 -20 -116 -95 -116 -169 0 -149 168 -234 276 -139 l34
30 0 -31 c0 -24 4 -31 20 -31 19 0 20 7 20 170 0 163 -1 170 -20 170 -16 0
-20 -7 -20 -32 l0 -32 -28 27 c-44 42 -104 55 -166 37z m139 -61 c43 -38 60
-93 45 -148 -41 -154 -260 -120 -260 41 0 114 132 180 215 107z"/>
<path d="M7459 490 c-71 -21 -119 -90 -119 -170 0 -134 134 -219 249 -158 54
28 82 64 57 74 -10 4 -29 -6 -51 -25 -84 -74 -215 -7 -215 109 0 78 62 140
140 140 34 0 48 -6 75 -33 27 -27 36 -31 49 -22 14 11 14 14 -1 34 -32 47
-120 71 -184 51z"/>
<path d="M7929 490 c-71 -21 -119 -90 -119 -170 0 -134 134 -219 249 -158 54
28 82 64 57 74 -10 4 -29 -6 -51 -25 -84 -74 -215 -7 -215 109 0 78 62 140
140 140 34 0 48 -6 75 -33 27 -27 36 -31 49 -22 14 11 14 14 -1 34 -32 47
-120 71 -184 51z"/>
<path d="M8900 489 c-13 -6 -33 -17 -42 -26 -17 -15 -18 -15 -18 5 0 15 -6 22
-20 22 -19 0 -20 -7 -20 -170 0 -163 1 -170 20 -170 19 0 20 7 20 115 0 81 4
124 14 144 14 27 53 51 81 51 8 0 15 9 15 20 0 22 -12 24 -50 9z"/>
<path d="M9196 490 c-64 -20 -116 -95 -116 -169 0 -149 168 -234 276 -139 l34
30 0 -31 c0 -24 4 -31 20 -31 19 0 20 7 20 170 0 163 -1 170 -20 170 -16 0
-20 -7 -20 -32 l0 -32 -28 27 c-44 42 -104 55 -166 37z m139 -61 c43 -38 60
-93 45 -148 -41 -154 -260 -120 -260 41 0 114 132 180 215 107z"/>
<path d="M10067 486 c-50 -18 -62 -30 -86 -80 -40 -82 -15 -193 53 -235 70
-44 169 -36 220 18 28 29 28 29 8 40 -16 9 -23 8 -29 -2 -29 -48 -114 -61
-171 -27 -27 17 -62 70 -62 95 0 3 65 5 144 5 80 0 147 4 151 9 9 15 -12 92
-32 120 -46 61 -124 84 -196 57z m127 -45 c32 -21 55 -56 56 -83 0 -16 -12
-18 -125 -18 -69 0 -125 2 -125 5 0 3 6 21 14 40 28 67 120 95 180 56z"/>
<path d="M8310 368 c0 -97 4 -130 18 -158 34 -69 129 -88 194 -40 28 21 28 21
28 0 0 -15 7 -20 25 -20 l25 0 0 170 0 170 -25 0 -25 0 0 -116 c0 -65 -5 -125
-11 -137 -31 -61 -116 -78 -160 -31 -22 24 -24 34 -27 155 -3 119 -5 129 -23
129 -18 0 -19 -8 -19 -122z"/>
</g>
</svg>
